<?xml version="1.0" encoding="utf-8"?>
<!-- Generator: Adobe Illustrator 26.5.0, SVG Export Plug-In . SVG Version: 6.00 Build 0)  -->
<svg version="1.1" id="Layer_1" xmlns="http://www.w3.org/2000/svg" xmlns:xlink="http://www.w3.org/1999/xlink" x="0px" y="0px"
	 viewBox="0 0 512 512" style="enable-background:new 0 0 512 512;" xml:space="preserve">
<style type="text/css">
	.st0{fill:url(#block_00000013871369597925379520000002812572442490941850_);}
	.st1{fill:#FFFFFF;}
</style>
<radialGradient id="block_00000166661055963930016860000010982893541652459439_" cx="48.5988" cy="448.6106" r="711.335" gradientTransform="matrix(0.9986 -5.233596e-02 -4.448556e-02 -0.8488 -8.4221 840.4885)" gradientUnits="userSpaceOnUse">
	<stop  offset="0" style="stop-color:#FED576"/>
	<stop  offset="0.2634" style="stop-color:#F47133"/>
	<stop  offset="0.6091" style="stop-color:#BC3081"/>
	<stop  offset="1" style="stop-color:#4C63D2"/>
</radialGradient>
<path id="block" stroke="white" stroke-width="12" style="fill:url(#block_00000166661055963930016860000010982893541652459439_);" d="M96.1,23.2
	c-16.2,6.3-29.9,14.7-43.6,28.4C38.8,65.2,30.4,79,24.1,95.1c-6.1,15.6-10.2,33.5-11.4,59.7s-1.5,34.6-1.5,101.4s0.3,75.2,1.5,101.4
	c1.2,26.2,5.4,44.1,11.4,59.7c6.3,16.2,14.7,29.9,28.4,43.6s27.4,22.1,43.6,28.4c15.6,6.1,33.5,10.2,59.7,11.4
	c26.2,1.2,34.6,1.5,101.4,1.5s75.2-0.3,101.4-1.5c26.2-1.2,44.1-5.4,59.7-11.4c16.2-6.3,29.9-14.7,43.6-28.4
	c13.7-13.7,22.1-27.4,28.4-43.6c6.1-15.6,10.2-33.5,11.4-59.7c1.2-26.2,1.5-34.6,1.5-101.4s-0.3-75.2-1.5-101.4s-5.4-44.1-11.4-59.7
	C484,79,475.6,65.2,462,51.6c-13.7-13.7-27.4-22.1-43.6-28.4c-15.6-6.1-33.5-10.2-59.7-11.4s-34.6-1.5-101.4-1.5
	s-75.2,0.3-101.4,1.5C129.6,12.9,111.7,17.1,96.1,23.2z"/>
<g>
	<circle id="flash" class="st1" cx="353.9" cy="132.7" r="23.4"/>
	<path id="body" class="st1" d="M457.5,151.6c-1.1-24-5.1-37-8.5-45.7c-4.5-11.5-9.8-19.7-18.4-28.3c-8.6-8.6-16.8-13.9-28.3-18.4
		c-8.7-3.4-21.7-7.4-45.7-8.5c-25.9-1.2-33.7-1.4-99.4-1.4s-73.5,0.2-99.4,1.4c-24,1.1-37,5.1-45.7,8.5
		c-11.5,4.5-19.7,9.8-28.3,18.4c-8.6,8.6-13.9,16.8-18.4,28.3c-3.4,8.7-7.4,21.7-8.5,45.7c-1.1,25.9-1.4,33.7-1.4,99.4
		s0.2,73.5,1.4,99.4c1.1,24,5.1,37,8.5,45.7c4.5,11.5,9.8,19.7,18.4,28.3c8.6,8.6,16.8,13.9,28.3,18.4c8.7,3.4,21.7,7.4,45.7,8.5
		c25.9,1.1,33.7,1.4,99.4,1.4s73.5-0.2,99.4-1.4c24-1.1,37-5.1,45.7-8.5c11.5-4.5,19.7-9.8,28.3-18.4c8.6-8.6,13.9-16.8,18.4-28.3
		c3.4-8.7,7.4-21.7,8.5-45.7c1.1-25.9,1.4-33.7,1.4-99.4S458.7,177.5,457.5,151.6z M436.8,340.4c-1,21.5-4.6,33.2-7.6,41
		c-4,10.3-8.8,17.7-16.5,25.4c-7.7,7.7-15.1,12.5-25.4,16.5c-7.8,3-19.5,6.6-41,7.6c-23.2,1.1-30.2,1.3-89.1,1.3s-65.9-0.3-89.1-1.3
		c-21.5-1-33.2-4.6-41-7.6c-10.3-4-17.7-8.8-25.4-16.5s-12.5-15.1-16.5-25.4c-3-7.8-6.6-19.5-7.6-41c-1.1-23.2-1.3-30.2-1.3-89.1
		c0-58.9,0.3-65.9,1.3-89.1c1-21.5,4.6-33.2,7.6-41c4-10.3,8.8-17.7,16.5-25.4s15.1-12.5,25.4-16.5c7.8-3,19.5-6.6,41-7.6
		c23.2-1.1,30.2-1.3,89.1-1.3s65.9,0.2,89.1,1.3c21.5,1,33.2,4.6,41,7.6c10.3,4,17.7,8.8,25.4,16.5s12.5,15.1,16.5,25.4
		c3,7.8,6.6,19.5,7.6,41c1.1,23.2,1.3,30.2,1.3,89.1S437.8,317.2,436.8,340.4z"/>
	<path id="lens" class="st1" d="M151.3,256.5c0,55.5,45,100.4,100.4,100.4s100.4-45,100.4-100.4s-44.9-100.4-100.4-100.4
		S151.3,201,151.3,256.5z M316.9,256.5c0,36-29.2,65.2-65.2,65.2s-65.2-29.2-65.2-65.2s29.2-65.2,65.2-65.2S316.9,220.5,316.9,256.5
		z"/>
</g>
</svg>
