<?xml version="1.0" encoding="UTF-8"?>
<svg id="Layer_1" data-name="Layer 1" xmlns="http://www.w3.org/2000/svg" viewBox="0 0 100.02 100.02">
  <rect width="100.02" height="100.02" style="fill: #5253a3;" stroke="white" stroke-width="4" />
  <path d="M75.44,51.03l9.39,6.76v-4.15l-7.96-5.63,7.96-5.63v-4.15l-9.39,6.78h-1.01l-9.36-6.78v4.15l7.93,5.63-7.93,5.63v4.15l9.36-6.76h1.01Zm-33.26-1.23h19.81v-3.6h-19.81s0,3.6,0,3.6Zm-7.44,8.08h3.61v-19.76h-7.15l-3.98,18.84h-.93l-3.98-18.84h-7.15v19.76h3.61v-16.48l-.64-2.36h1.14l4.18,18.84h6.64l4.15-18.84h1.17l-.67,2.36v16.48Z" style="fill: #fff; fill-rule: evenodd;"/>
</svg>